<svg width="1200" height="1200" viewBox="0 0 1200 1200" fill="none" xmlns="http://www.w3.org/2000/svg">
<g clip-path="url(#clip0_21_7337)">
<path d="M392.788 399.955H512.649C514.91 399.955 516.607 400.524 517.737 402.794L641.837 629.22C647.775 640.286 664.734 635.747 664.734 623.262V404.213C664.734 401.659 666.431 399.956 668.974 399.956H760.849C763.393 399.956 765.089 401.659 765.089 404.213V795.777C765.089 798.329 763.393 800.032 760.849 800.032H640.424C638.162 800.032 636.465 799.464 635.335 797.193L512.083 571.052C505.863 559.986 488.902 564.528 488.902 577.01V795.776C488.902 798.328 487.206 800.031 484.661 800.031H392.787C390.244 800.031 388.547 798.328 388.547 795.776V404.212C388.547 401.658 390.244 399.955 392.787 399.955H392.788Z" fill="white"/>
<path d="M795.077 411.036C795.077 360.372 835.805 319.494 888.776 319.494C941.748 319.494 982.477 360.372 982.477 411.036C982.477 461.7 941.75 502.579 888.776 502.579C835.802 502.579 795.077 461.695 795.077 411.036ZM925.009 411.036C925.009 390.221 909.518 374.666 888.776 374.666C868.034 374.666 852.546 390.221 852.546 411.036C852.546 431.852 868.037 447.402 888.776 447.402C909.516 447.402 925.009 431.853 925.009 411.036Z" fill="white"/>
</g>
<defs>
<clipPath id="clip0_21_7337">
<rect width="1130.4" height="1200" fill="white" transform="translate(34.8)"/>
</clipPath>
</defs>
</svg>
