<svg viewBox="185 456 909 250" fill="none" xmlns="http://www.w3.org/2000/svg">
<g clip-path="url(#clip0_21_7274)">
<path d="M189.379 500.64H248.991C250.117 500.64 250.959 500.922 251.521 502.047L313.241 614.241C316.194 619.725 324.63 617.476 324.63 611.289V502.751C324.63 501.485 325.474 500.641 326.738 500.641H372.431C373.697 500.641 374.539 501.486 374.539 502.751V696.771C374.539 698.036 373.696 698.879 372.431 698.879H312.538C311.413 698.879 310.569 698.597 310.007 697.472L248.709 585.42C245.616 579.936 237.18 582.187 237.18 588.372V696.771C237.18 698.036 236.337 698.879 235.072 698.879H189.378C188.113 698.879 187.27 698.035 187.27 696.771V502.751C187.27 501.485 188.114 500.641 189.378 500.641L189.379 500.64Z" fill="white"/>
<path d="M587.402 599.758C587.402 661.76 547.192 703.095 486.877 703.095C426.563 703.095 385.79 661.76 385.79 599.758C385.79 537.756 426.281 496.422 486.877 496.422C547.474 496.422 587.402 537.757 587.402 599.758ZM486.877 660.636C516.684 660.636 533.274 638.703 533.274 599.618C533.274 560.532 516.684 538.881 486.877 538.881C456.791 538.881 439.919 560.672 439.919 599.618C439.919 638.563 456.79 660.636 486.877 660.636Z" fill="white"/>
<path d="M600.76 500.64H647.859C648.984 500.64 649.968 501.625 649.968 502.749V696.77C649.968 697.895 648.983 698.878 647.859 698.878H600.76C599.634 698.878 598.652 697.894 598.652 696.77V502.749C598.652 501.624 599.637 500.64 600.76 500.64Z" fill="white"/>
<path d="M659.67 645.593C659.248 644.327 659.67 643.344 661.075 642.921L702.831 630.408C703.957 630.127 705.222 630.408 705.643 631.674C711.83 651.076 727.576 662.182 746.416 662.182C763.007 662.182 777.91 655.996 777.91 641.796C777.91 633.36 772.568 628.58 763.007 626.19L713.376 614.098C679.774 605.945 663.185 582.465 663.185 557.3C663.185 521.449 696.928 496.282 742.058 496.282C785.08 496.282 813.761 517.934 824.587 549.146C825.15 550.551 824.305 551.395 823.181 551.816L783.394 565.314C782.267 565.736 781.144 565.173 780.722 564.048C776.364 551.393 765.116 536.772 742.902 536.772C726.172 536.772 714.502 545.208 714.502 555.331C714.502 563.486 722.095 568.829 729.265 570.515L777.066 581.904C809.544 589.636 829.085 608.194 829.085 637.72C829.085 678.352 792.531 703.095 745.291 703.095C698.755 703.095 671.621 680.741 659.67 645.593Z" fill="white"/>
<path d="M892.353 628.3V645.452C892.353 651.498 896.85 655.996 902.897 655.996H986.832C987.957 655.996 988.941 656.981 988.941 658.106V696.769C988.941 697.894 987.956 698.877 986.832 698.877H841.881C840.755 698.877 839.771 697.893 839.771 696.769V502.748C839.771 501.623 840.756 500.639 841.881 500.639H983.88C985.006 500.639 985.989 501.624 985.989 502.748V541.411C985.989 542.538 985.005 543.521 983.88 543.521H900.226C895.025 543.521 891.228 547.318 891.228 552.519V566.859C891.228 572.06 895.025 575.998 900.226 575.998H973.476C974.601 575.998 975.585 576.981 975.585 578.106V616.348C975.585 617.474 974.6 617.754 973.476 617.754H902.898C896.852 617.754 892.354 622.253 892.354 628.299L892.353 628.3Z" fill="white"/>
<path d="M998.435 504.095C998.435 478.991 1018.69 458.735 1045.04 458.735C1071.38 458.735 1091.64 478.991 1091.64 504.095C1091.64 529.198 1071.38 549.454 1045.04 549.454C1018.69 549.454 998.435 529.197 998.435 504.095ZM1063.06 504.095C1063.06 493.78 1055.35 486.073 1045.04 486.073C1034.72 486.073 1027.02 493.78 1027.02 504.095C1027.02 514.409 1034.72 522.114 1045.04 522.114C1055.35 522.114 1063.06 514.409 1063.06 504.095Z" fill="white"/>
</g>
<defs>
<clipPath id="clip0_21_7274">
<rect width="1200" height="1200" fill="white"/>
</clipPath>
</defs>
</svg>
